<?xml version="1.0" encoding="UTF-8" standalone="no"?>
<svg
   viewBox="0 0 357.78799 354.81601"
   version="1.1"
   id="svg68082"
   sodipodi:docname="sprite.svg"
   inkscape:version="1.2.1 (9c6d41e4, 2022-07-14)"
   xmlns:inkscape="http://www.inkscape.org/namespaces/inkscape"
   xmlns:sodipodi="http://sodipodi.sourceforge.net/DTD/sodipodi-0.dtd"
   xmlns="http://www.w3.org/2000/svg"
   xmlns:svg="http://www.w3.org/2000/svg">
  <defs
     id="defs68084" />
  <g
     id="g69290"
     inkscape:label="Background">
    <g
       id="g18"
       transform="matrix(1.3333333,0,0,-1.3333333,3.7737711,358.57688)">
      <path
         d="M 0,0 H 268.34451 V 266.11536 H 0 Z"
         style="fill:#ffffff;fill-opacity:1;fill-rule:nonzero;stroke:none"
         id="path20" />
    </g>
    <g
       id="g22"
       transform="matrix(1.3333333,0,0,-1.3333333,3.7737711,358.57688)">
      <path
         d="M 0,0 H 266.11536 V 266.11536 H 0 Z"
         style="fill:#ffffff;fill-opacity:1;fill-rule:nonzero;stroke:none"
         id="path24" />
    </g>
    <g
       id="g26"
       transform="matrix(1.3333333,0,0,-1.3333333,3.7737711,358.57688)">
      <path
         d="M 136.65408,82.79622 25.80061,59.45985 23.66264,215.33699 136.65408,227.89891"
         style="fill:#f2f2f2;fill-opacity:0.5;fill-rule:nonzero;stroke:#f2f2f2;stroke-width:1.00002;stroke-linecap:butt;stroke-linejoin:miter;stroke-miterlimit:10;stroke-dasharray:none;stroke-opacity:0.5"
         id="path28" />
    </g>
    <g
       id="g30"
       transform="matrix(1.3333333,0,0,-1.3333333,3.7737711,358.57688)">
      <path
         d="M 247.50647,59.45985 136.65408,82.79622 v 145.10269 l 112.99036,-12.56192"
         style="fill:#e6e6e6;fill-opacity:0.5;fill-rule:nonzero;stroke:#e6e6e6;stroke-width:1.00002;stroke-linecap:butt;stroke-linejoin:miter;stroke-miterlimit:10;stroke-dasharray:none;stroke-opacity:0.5"
         id="path32" />
    </g>
    <g
       id="g34"
       transform="matrix(1.3333333,0,0,-1.3333333,3.7737711,358.57688)">
      <path
         d="M 247.50647,59.45985 136.65408,82.79622 25.80061,59.45985 136.65408,32.29031"
         style="fill:#ececec;fill-opacity:0.5;fill-rule:nonzero;stroke:#ececec;stroke-width:1.00002;stroke-linecap:butt;stroke-linejoin:miter;stroke-miterlimit:10;stroke-dasharray:none;stroke-opacity:0.5"
         id="path36" />
    </g>
    <g
       id="g38"
       transform="matrix(1.3333333,0,0,-1.3333333,3.7737711,358.57688)">
      <path
         d="m 134.25905,32.877 110.86557,27.08494 2.08961,155.64531"
         style="fill:none;stroke:#b0b0b0;stroke-width:0.8;stroke-linecap:butt;stroke-linejoin:round;stroke-miterlimit:10;stroke-dasharray:none;stroke-opacity:1"
         id="path40" />
    </g>
    <g
       id="g42"
       transform="matrix(1.3333333,0,0,-1.3333333,3.7737711,358.57688)">
      <path
         d="m 106.1172,39.77429 110.97983,26.08737 1.52162,152.92508"
         style="fill:none;stroke:#b0b0b0;stroke-width:0.8;stroke-linecap:butt;stroke-linejoin:round;stroke-miterlimit:10;stroke-dasharray:none;stroke-opacity:1"
         id="path44" />
    </g>
    <g
       id="g46"
       transform="matrix(1.3333333,0,0,-1.3333333,3.7737711,358.57688)">
      <path
         d="m 79.04103,46.41122 111.0128,25.14365 0.99207,150.29709"
         style="fill:none;stroke:#b0b0b0;stroke-width:0.8;stroke-linecap:butt;stroke-linejoin:round;stroke-miterlimit:10;stroke-dasharray:none;stroke-opacity:1"
         id="path48" />
    </g>
    <g
       id="g50"
       transform="matrix(1.3333333,0,0,-1.3333333,3.7737711,358.57688)">
      <path
         d="m 52.97125,52.80096 110.97214,24.25043 0.49768,147.75813"
         style="fill:none;stroke:#b0b0b0;stroke-width:0.8;stroke-linecap:butt;stroke-linejoin:round;stroke-miterlimit:10;stroke-dasharray:none;stroke-opacity:1"
         id="path52" />
    </g>
    <g
       id="g54"
       transform="matrix(1.3333333,0,0,-1.3333333,3.7737711,358.57688)">
      <path
         d="M 27.85289,58.95668 138.71735,82.36226 138.7547,227.666"
         style="fill:none;stroke:#b0b0b0;stroke-width:0.8;stroke-linecap:butt;stroke-linejoin:round;stroke-miterlimit:10;stroke-dasharray:none;stroke-opacity:1"
         id="path56" />
    </g>
    <g
       id="g58"
       transform="matrix(1.3333333,0,0,-1.3333333,3.7737711,358.57688)">
      <path
         d="M 134.55348,227.666 134.59084,82.36226 245.45421,58.95668"
         style="fill:none;stroke:#b0b0b0;stroke-width:0.8;stroke-linecap:butt;stroke-linejoin:round;stroke-miterlimit:10;stroke-dasharray:none;stroke-opacity:1"
         id="path60" />
    </g>
    <g
       id="g62"
       transform="matrix(1.3333333,0,0,-1.3333333,3.7737711,358.57688)">
      <path
         d="M 108.86711,224.80952 109.3648,77.05139 220.33585,52.80096"
         style="fill:none;stroke:#b0b0b0;stroke-width:0.8;stroke-linecap:butt;stroke-linejoin:round;stroke-miterlimit:10;stroke-dasharray:none;stroke-opacity:1"
         id="path64" />
    </g>
    <g
       id="g66"
       transform="matrix(1.3333333,0,0,-1.3333333,3.7737711,358.57688)">
      <path
         d="M 82.26227,221.85196 83.25436,71.55487 194.26604,46.41122"
         style="fill:none;stroke:#b0b0b0;stroke-width:0.8;stroke-linecap:butt;stroke-linejoin:round;stroke-miterlimit:10;stroke-dasharray:none;stroke-opacity:1"
         id="path68" />
    </g>
    <g
       id="g70"
       transform="matrix(1.3333333,0,0,-1.3333333,3.7737711,358.57688)">
      <path
         d="M 54.68953,218.78674 56.21007,65.86166 167.19098,39.77429"
         style="fill:none;stroke:#b0b0b0;stroke-width:0.8;stroke-linecap:butt;stroke-linejoin:round;stroke-miterlimit:10;stroke-dasharray:none;stroke-opacity:1"
         id="path72" />
    </g>
    <g
       id="g74"
       transform="matrix(1.3333333,0,0,-1.3333333,3.7737711,358.57688)">
      <path
         d="M 26.09395,215.60725 28.18248,59.96194 139.04915,32.877"
         style="fill:none;stroke:#b0b0b0;stroke-width:0.8;stroke-linecap:butt;stroke-linejoin:round;stroke-miterlimit:10;stroke-dasharray:none;stroke-opacity:1"
         id="path76" />
    </g>
    <g
       id="g78"
       transform="matrix(1.3333333,0,0,-1.3333333,3.7737711,358.57688)">
      <path
         d="M 247.54822,62.51959 136.65408,85.6483 25.75887,62.51959"
         style="fill:none;stroke:#b0b0b0;stroke-width:0.8;stroke-linecap:butt;stroke-linejoin:round;stroke-miterlimit:10;stroke-dasharray:none;stroke-opacity:1"
         id="path80" />
    </g>
    <g
       id="g82"
       transform="matrix(1.3333333,0,0,-1.3333333,3.7737711,358.57688)">
      <path
         d="M 248.0547,99.41765 136.65408,120.03047 25.2535,99.41765"
         style="fill:none;stroke:#b0b0b0;stroke-width:0.8;stroke-linecap:butt;stroke-linejoin:round;stroke-miterlimit:10;stroke-dasharray:none;stroke-opacity:1"
         id="path84" />
    </g>
    <g
       id="g86"
       transform="matrix(1.3333333,0,0,-1.3333333,3.7737711,358.57688)">
      <path
         d="M 248.56557,136.65408 136.65408,154.70377 24.74261,136.65408"
         style="fill:none;stroke:#b0b0b0;stroke-width:0.8;stroke-linecap:butt;stroke-linejoin:round;stroke-miterlimit:10;stroke-dasharray:none;stroke-opacity:1"
         id="path88" />
    </g>
    <g
       id="g90"
       transform="matrix(1.3333333,0,0,-1.3333333,3.7737711,358.57688)">
      <path
         d="M 249.08084,174.23332 136.65408,189.67479 24.22624,174.23332"
         style="fill:none;stroke:#b0b0b0;stroke-width:0.8;stroke-linecap:butt;stroke-linejoin:round;stroke-miterlimit:10;stroke-dasharray:none;stroke-opacity:1"
         id="path92" />
    </g>
    <g
       id="g94"
       transform="matrix(1.3333333,0,0,-1.3333333,3.7737711,358.57688)">
      <path
         d="M 249.6016,212.1608 136.65408,224.94576 23.70659,212.1608"
         style="fill:none;stroke:#b0b0b0;stroke-width:0.8;stroke-linecap:butt;stroke-linejoin:round;stroke-miterlimit:10;stroke-dasharray:none;stroke-opacity:1"
         id="path96" />
    </g>
    <g
       id="g98"
       transform="matrix(1.3333333,0,0,-1.3333333,3.7737711,358.57688)">
      <path
         d="M 25.80061,59.45985 136.65408,32.29031"
         style="fill:none;stroke:#000000;stroke-width:0.8;stroke-linecap:square;stroke-linejoin:round;stroke-miterlimit:10;stroke-dasharray:none;stroke-opacity:1"
         id="path100" />
    </g>
    <g
       id="g102"
       transform="matrix(1.3333333,0,0,-1.3333333,3.7737711,358.57688)">
      <path
         d="m 135.21815,33.11101 -2.88174,-0.70314"
         style="fill:none;stroke:#000000;stroke-width:0.8;stroke-linecap:square;stroke-linejoin:round;stroke-miterlimit:10;stroke-dasharray:none;stroke-opacity:1"
         id="path104" />
    </g>
    <g
       id="g106"
       transform="matrix(1.3333333,0,0,-1.3333333,3.7737711,358.57688)">
      <path
         d="m 107.07631,39.99953 -2.87955,-0.67678"
         style="fill:none;stroke:#000000;stroke-width:0.8;stroke-linecap:square;stroke-linejoin:round;stroke-miterlimit:10;stroke-dasharray:none;stroke-opacity:1"
         id="path108" />
    </g>
    <g
       id="g110"
       transform="matrix(1.3333333,0,0,-1.3333333,3.7737711,358.57688)">
      <path
         d="M 79.99907,46.62767 77.1228,45.97615"
         style="fill:none;stroke:#000000;stroke-width:0.8;stroke-linecap:square;stroke-linejoin:round;stroke-miterlimit:10;stroke-dasharray:none;stroke-opacity:1"
         id="path112" />
    </g>
    <g
       id="g114"
       transform="matrix(1.3333333,0,0,-1.3333333,3.7737711,358.57688)">
      <path
         d="M 53.92706,53.0097 51.0563,52.38237"
         style="fill:none;stroke:#000000;stroke-width:0.8;stroke-linecap:square;stroke-linejoin:round;stroke-miterlimit:10;stroke-dasharray:none;stroke-opacity:1"
         id="path116" />
    </g>
    <g
       id="g118"
       transform="matrix(1.3333333,0,0,-1.3333333,3.7737711,358.57688)">
      <path
         d="M 28.8065,59.15883 25.94234,58.55347"
         style="fill:none;stroke:#000000;stroke-width:0.8;stroke-linecap:square;stroke-linejoin:round;stroke-miterlimit:10;stroke-dasharray:none;stroke-opacity:1"
         id="path120" />
    </g>
    <g
       id="g122"
       transform="matrix(1.3333333,0,0,-1.3333333,3.7737711,358.57688)">
      <path
         d="M 247.50647,59.45985 136.65408,32.29031"
         style="fill:none;stroke:#000000;stroke-width:0.8;stroke-linecap:square;stroke-linejoin:round;stroke-miterlimit:10;stroke-dasharray:none;stroke-opacity:1"
         id="path124" />
    </g>
    <g
       id="g126"
       transform="matrix(1.3333333,0,0,-1.3333333,3.7737711,358.57688)">
      <path
         d="m 244.50056,59.15883 2.86528,-0.60536"
         style="fill:none;stroke:#000000;stroke-width:0.8;stroke-linecap:square;stroke-linejoin:round;stroke-miterlimit:10;stroke-dasharray:none;stroke-opacity:1"
         id="path128" />
    </g>
    <g
       id="g130"
       transform="matrix(1.3333333,0,0,-1.3333333,3.7737711,358.57688)">
      <path
         d="m 219.38002,53.0097 2.87184,-0.62733"
         style="fill:none;stroke:#000000;stroke-width:0.8;stroke-linecap:square;stroke-linejoin:round;stroke-miterlimit:10;stroke-dasharray:none;stroke-opacity:1"
         id="path132" />
    </g>
    <g
       id="g134"
       transform="matrix(1.3333333,0,0,-1.3333333,3.7737711,358.57688)">
      <path
         d="m 193.30913,46.62767 2.87623,-0.65152"
         style="fill:none;stroke:#000000;stroke-width:0.8;stroke-linecap:square;stroke-linejoin:round;stroke-miterlimit:10;stroke-dasharray:none;stroke-opacity:1"
         id="path136" />
    </g>
    <g
       id="g138"
       transform="matrix(1.3333333,0,0,-1.3333333,3.7737711,358.57688)">
      <path
         d="m 166.23186,39.99953 2.87956,-0.67678"
         style="fill:none;stroke:#000000;stroke-width:0.8;stroke-linecap:square;stroke-linejoin:round;stroke-miterlimit:10;stroke-dasharray:none;stroke-opacity:1"
         id="path140" />
    </g>
    <g
       id="g142"
       transform="matrix(1.3333333,0,0,-1.3333333,3.7737711,358.57688)">
      <path
         d="m 138.09003,33.11101 2.88064,-0.70314"
         style="fill:none;stroke:#000000;stroke-width:0.8;stroke-linecap:square;stroke-linejoin:round;stroke-miterlimit:10;stroke-dasharray:none;stroke-opacity:1"
         id="path144" />
    </g>
    <g
       id="g146"
       transform="matrix(1.3333333,0,0,-1.3333333,3.7737711,358.57688)">
      <path
         d="m 247.50647,59.45985 2.13797,155.87714"
         style="fill:none;stroke:#000000;stroke-width:0.8;stroke-linecap:square;stroke-linejoin:round;stroke-miterlimit:10;stroke-dasharray:none;stroke-opacity:1"
         id="path148" />
    </g>
    <g
       id="g150"
       transform="matrix(1.3333333,0,0,-1.3333333,3.7737711,358.57688)">
      <path
         d="m 246.5946,62.71844 2.86527,-0.59767"
         style="fill:none;stroke:#000000;stroke-width:0.8;stroke-linecap:square;stroke-linejoin:round;stroke-miterlimit:10;stroke-dasharray:none;stroke-opacity:1"
         id="path152" />
    </g>
    <g
       id="g154"
       transform="matrix(1.3333333,0,0,-1.3333333,3.7737711,358.57688)">
      <path
         d="m 247.09558,99.59454 2.87956,-0.53285"
         style="fill:none;stroke:#000000;stroke-width:0.8;stroke-linecap:square;stroke-linejoin:round;stroke-miterlimit:10;stroke-dasharray:none;stroke-opacity:1"
         id="path156" />
    </g>
    <g
       id="g158"
       transform="matrix(1.3333333,0,0,-1.3333333,3.7737711,358.57688)">
      <path
         d="m 247.60205,136.80899 2.89385,-0.4669"
         style="fill:none;stroke:#000000;stroke-width:0.8;stroke-linecap:square;stroke-linejoin:round;stroke-miterlimit:10;stroke-dasharray:none;stroke-opacity:1"
         id="path160" />
    </g>
    <g
       id="g162"
       transform="matrix(1.3333333,0,0,-1.3333333,3.7737711,358.57688)">
      <path
         d="m 248.11293,174.36624 2.90811,-0.3999"
         style="fill:none;stroke:#000000;stroke-width:0.8;stroke-linecap:square;stroke-linejoin:round;stroke-miterlimit:10;stroke-dasharray:none;stroke-opacity:1"
         id="path164" />
    </g>
    <g
       id="g166"
       transform="matrix(1.3333333,0,0,-1.3333333,3.7737711,358.57688)">
      <path
         d="m 248.6282,212.27066 2.9224,-0.33069"
         style="fill:none;stroke:#000000;stroke-width:0.8;stroke-linecap:square;stroke-linejoin:round;stroke-miterlimit:10;stroke-dasharray:none;stroke-opacity:1"
         id="path168" />
    </g>
  </g>
</svg>
